<svg width="24" height="24" viewBox="0 0 24 24" fill="none" xmlns="http://www.w3.org/2000/svg">
<path d="M12 0C5.37256 0 0 5.37256 0 12C0 18.6274 5.37256 24 12 24C18.6274 24 24 18.6274 24 12C24 5.37256 18.6274 0 12 0ZM12 21.6774C6.65168 21.6774 2.32258 17.3491 2.32258 12C2.32258 6.65173 6.65085 2.32258 12 2.32258C17.3483 2.32258 21.6774 6.65085 21.6774 12C21.6774 17.3483 17.3491 21.6774 12 21.6774ZM17.1944 16.7872C16.7292 17.2572 14.9913 18.7903 12.159 18.7903C8.17045 18.7903 5.36139 15.8181 5.36139 11.9402C5.36139 8.11031 8.27792 5.19503 12.1241 5.19503C14.811 5.19503 16.4178 6.4831 16.8463 6.87789C16.947 6.97048 17.0116 7.09574 17.0288 7.23144C17.0459 7.36715 17.0145 7.50455 16.94 7.61927L16.0615 8.97958C15.8757 9.26748 15.4825 9.33193 15.2148 9.12092C14.7989 8.79305 13.6754 8.03037 12.2289 8.03037C9.89168 8.03037 8.45879 9.73989 8.45879 11.9053C8.45879 13.9177 9.75982 15.9549 12.2464 15.9549C13.8266 15.9549 14.9969 15.0337 15.4267 14.6376C15.6817 14.4026 16.0845 14.4421 16.2889 14.7217L17.2501 16.0364C17.3321 16.1475 17.3715 16.2844 17.3613 16.4221C17.3511 16.5598 17.2919 16.6894 17.1944 16.7872Z" fill="white"/>
</svg>
