<svg width="16" height="16" viewBox="0 0 16 16" fill="none" xmlns="http://www.w3.org/2000/svg">
<g clip-path="url(#clip0)">
<path d="M9.46565 10.2979V10.4229H9.34065H7.12781H7.00281V10.2979V4.76596V4.64096H7.12781H9.34065H9.46565V4.76596V10.2979Z" fill="#472B75" stroke="#F4AF23" stroke-width="0.25"/>
<path d="M11.0826 12.2555V12.3805H10.9576H5.34058H5.21558V12.2555V10.5533V10.4283H5.34058H10.9576H11.0826V10.5533V12.2555Z" fill="#5C82A5" stroke="#F4AF23" stroke-width="0.25"/>
<path d="M12.5294 13.9576V14.0826H12.4044H4.06396H3.93896V13.9576V12.2555V12.1305H4.06396H12.4044H12.5294V12.2555V13.9576Z" fill="#5C82A5" stroke="#F4AF23" stroke-width="0.25"/>
<path d="M1.125 14.125V15.875H14.875V14.125H1.125Z" fill="#5C82A5" stroke="#F4AF23" stroke-width="0.25"/>
<path d="M8.14911 5.49207C9.63121 5.49207 10.8326 4.29063 10.8326 2.80853C10.8326 1.32643 9.63121 0.124993 8.14911 0.124993C6.66716 0.124993 5.46558 1.32643 5.46558 2.80853C5.46558 4.29063 6.66716 5.49207 8.14911 5.49207Z" fill="#DF332A" stroke="#F4AF23" stroke-width="0.25"/>
</g>
<defs>
<clipPath id="clip0">
<rect width="16" height="16" fill="white"/>
</clipPath>
</defs>
</svg>
