<svg width="24" height="36" viewBox="0 0 24 36" fill="none" xmlns="http://www.w3.org/2000/svg">
<path d="M24 20.1472C24 20.1472 21.9252 17.8654 16.9626 16.8538L12.779 2.60276L12.0147 0L11.2509 2.60137L7.06737 16.8459C2.08329 17.8534 0 20.1472 0 20.1472C0 20.1472 1.81871 22.1469 6.12155 23.2317C3.97776 26.0225 5.30576 29.0306 5.30576 29.0306L12.0006 26.5844L18.6965 29.0306C18.6965 29.0306 20.0245 26.0234 17.8807 23.2317C22.1835 22.1455 24 20.1472 24 20.1472ZM17.3289 18.2374C18.5435 18.5216 19.7041 18.9425 20.7775 19.488H12.6976V17.6579C13.7222 17.6815 14.743 17.7711 15.7505 17.9257C16.3113 18.0137 16.8371 18.1193 17.3289 18.2374ZM11.2232 19.488H3.22585C4.3605 18.9039 5.9836 18.287 8.17544 17.9372L8.28116 17.9196C9.25162 17.772 10.2344 17.6851 11.221 17.6598L11.2232 19.488ZM11.2232 22.6309C10.515 22.6123 9.80862 22.5621 9.10713 22.4804C9.77129 22.0122 10.4788 21.5869 11.2232 21.2084V22.6309ZM12.7383 21.1848C13.4997 21.5698 14.2228 22.0034 14.9008 22.4818C14.1839 22.5651 13.462 22.6161 12.7383 22.6346V21.1848ZM12.701 7.5248L15.3581 16.5847C14.4784 16.4726 13.591 16.4064 12.701 16.3864V7.5248ZM11.2232 7.91482V16.3892C10.3713 16.4116 9.5217 16.4759 8.67917 16.5819L11.2232 7.91482ZM3.22812 20.8036H9.23547C8.46777 21.1784 7.76434 21.6353 7.14369 22.1621C5.46405 21.8022 4.17563 21.2922 3.22812 20.8036ZM7.79157 23.5791C8.92111 23.7662 10.068 23.8747 11.2198 23.9033V25.4454L6.38217 27.2574C6.42288 27.2083 5.72694 25.6496 7.79157 23.5791ZM17.6201 27.2574L12.7349 25.4278V23.9033C13.9023 23.877 15.0648 23.7685 16.2096 23.5791C18.2753 25.6496 17.5794 27.2083 17.6201 27.2574ZM16.8603 22.1621C16.2386 21.6352 15.5343 21.1784 14.7657 20.8036H20.7741C19.8255 21.2922 18.5371 21.8022 16.8603 22.1621Z" fill="white"/>
<path d="M1.70339 29.1033L1.97928 30.114C1.97928 30.114 5.46011 28.4673 6.14813 30.4258V33.9461C6.14813 33.9461 5.93782 35.0194 4.4521 34.8573C2.96637 34.6951 2.7114 34.4705 2.7114 34.4705L2.72553 33.023C2.72553 33.023 2.76793 32.6487 3.34346 32.6366C3.91898 32.6246 4.81674 32.6366 4.81674 32.6366V31.499H3.12071C3.12071 31.499 1.45068 31.36 1.45068 33.0331V35.1292C1.45068 35.1292 2.76567 35.9514 4.35147 35.9426C5.91182 35.9314 7.34101 35.7679 7.45351 33.7715C7.56601 31.7751 7.45351 30.4906 7.45351 30.4906C7.45351 30.4906 7.09621 26.9244 1.70339 29.1033Z" fill="white"/>
<path d="M13.6713 34.4556C10.6399 35.628 10.2465 33.9924 10.2465 33.9924V28.5048H8.94165V33.9938C9.12369 34.6303 9.20793 35.6035 11.22 35.9393C13.232 36.2751 14.9767 35.0782 14.9767 35.0782V28.5048H13.6713V34.4556Z" fill="white"/>
<path d="M16.3237 28.9287L16.5623 30.0269C16.5623 30.0269 20.0448 28.7582 20.6469 30.2386C21.132 31.4309 19.9012 34.5381 19.9029 34.5428C19.9046 34.5474 19.9312 34.9671 19.0187 34.867L18.8226 33.1202C18.8226 33.1202 18.6959 31.5259 16.5764 31.9052V32.9581H17.3346C17.3346 32.9581 17.5607 32.8706 17.5873 33.3699C17.6138 33.8692 17.9265 35.6776 17.9265 35.6776C17.9265 35.6776 20.1359 36.5387 20.877 35.2288C21.6182 33.9188 22.3667 31.3133 22.0529 30.1886C21.6996 28.9287 20.3942 27.6688 16.3237 28.9287Z" fill="white"/>
<path d="M23.0542 36C23.4689 36 23.805 35.6348 23.805 35.1843C23.805 34.7338 23.4689 34.3686 23.0542 34.3686C22.6396 34.3686 22.3035 34.7338 22.3035 35.1843C22.3035 35.6348 22.6396 36 23.0542 36Z" fill="white"/>
</svg>
